<svg width="22" height="22" viewBox="0 0 22 22" fill="none" xmlns="http://www.w3.org/2000/svg">
<path d="M1 13.5V20C1 20.5523 1.44772 21 2 21H5.71428C6.26657 21 6.71429 20.5523 6.71429 20V14.5C6.71429 13.9477 6.26657 13.5 5.71429 13.5H1ZM1 13.5V11C1 5.47715 5.47715 1 11 1C16.5228 1 21 5.47715 21 11V13.5M21 13.5V20C21 20.5523 20.5523 21 20 21H16.2857C15.7334 21 15.2857 20.5523 15.2857 20V14.5C15.2857 13.9477 15.7334 13.5 16.2857 13.5H21Z" stroke="black" stroke-width="1.5" stroke-linecap="round" stroke-linejoin="round"/>
</svg>
